<?xml version="1.0" encoding="UTF-8"?>
<svg id="_レイヤー_1" data-name="レイヤー 1" xmlns="http://www.w3.org/2000/svg" viewBox="0 0 452.4 344.5">
  <defs>
    <style>
      .cls-1 {
        fill: #fff;
      }
    </style>
  </defs>
  <g id="blog">
    <path class="cls-1" d="M215.6,100.8c3.6,2.4,6.6,5.2,9.2,8.7,6.2,8.6,6.5,17.4.9,26.4-3.4,5-7.7,9.3-12.7,12.8-8.5,5.9-17.7,10.9-27.3,14.9-11.2,4.7-22.7,8.9-34.3,12.5-11.6,3.6-23.4,6.8-35.3,9.8-15.9,4.2-31.8,8.1-47.9,11.8-3,.7-4.8,2.4-5.2,5.2-2.2,8.6-4.5,17.3-6.8,25.9-.4,1.5-.8,3.1-1.2,4.8-.5,1.7-1.1,3.4-1.7,5.1-.5,1-1.3,1.3-2.4,1.1-1.1-.2-1.7-.9-1.7-2.1,0-1.3.2-2.6.5-3.8,1.8-7.8,3.8-15.6,6-23.3.4-1.6.9-3.3,1.3-5,0-.4.2-.8.4-1.2.2-.5.4-1,.5-1.6s0-1.2-.2-1.9c-.6-.2-1.1-.3-1.7-.2-.6,0-1.1.2-1.7.4-.2,0-.5.2-.9.2-1.6.4-3.3.8-5,1.1-13.8,3.3-27.8,6.1-41.7,8.5-.3,0-.6,0-.9.1-.7.2-1.4.2-2.1.2-.8,0-1.5,0-2.2-.1-.7-.2-1.1-.7-1.3-1.6-.2-.9,0-1.6.5-2,.5-.4,1.2-.8,2-.9,1.4-.4,2.8-.7,4.3-1,13-2.4,26-5,38.8-7.9,3.3-.7,6.5-1.5,9.9-2.2,3-.5,5-2.3,5.9-5.4,9.1-31.9,18.6-63.6,28.6-95.2,0-.2.2-.5.4-.7.2-.4.3-.8.4-1.3,0-.4,0-.9-.1-1.3-.7-.3-1.3-.5-2-.4-.7,0-1.3.1-2.1.3-.4,0-.8.2-1.2.2-.5,0-1,.2-1.6.2-.7.2-1.5.3-2.2.4-.8.2-1.5.1-2.2,0-.7-.2-1.1-.8-1.3-1.6-.2-.9-.1-1.6.3-2.1.4-.5,1-.9,1.8-1.2.9-.3,1.7-.7,2.6-1.1,2.2-.9,4.4-1.7,6.6-2.3,3.4-1,5.7-3.3,6.7-6.8,2.3-7.7,4.7-15.4,7.2-23.1,1.3-3.9,2.6-7.8,3.9-11.7,0-.5.2-.9.4-1.3.7-1.5,1-3.2,1.1-4.9-.6-.4-1.1-.6-1.7-.6s-1.1,0-1.7.1c-.2,0-.5.1-.7.1-6.6,1.1-13.1,2.7-19.4,4.9-.2,0-.4.2-.6.2-.8.2-1.6.5-2.3.9s-1.3,1-1.8,1.8c-.6.8-1.2,1.2-1.8,1.2-.7,0-1.3-.3-2-.9-1.2-1.2-1.3-2.5-.1-3.9,1.1-1.2,2.6-2.1,4.3-2.7,0,0,.2,0,.2-.1,7.7-3,15.7-5.2,23.9-6.5,2-.2,3.5-.5,4.5-.9.9-.4,1.6-1,2-2,.4-.9.7-2.4,1-4.5.2-1.1.3-2.3.4-3.4,0-1,.2-2,.4-2.9.2-1.3.9-2,2.3-2,1.4.2,2.1.9,2.1,2.3,0,2-.1,4.1-.4,6.2,0,.6-.2,1.1-.2,1.6-.3,1.1-.4,2.2-.4,3.3,1.5.6,2.9.7,4.4.5.5,0,1-.1,1.5-.1,9.4-.6,18.5.4,27.5,2.9,3.3,1,6.4,2.5,9.2,4.5,5,4.2,5.9,9.2,2.4,14.8-2,2.8-4.3,5.3-7.1,7.3-5.3,3.8-10.9,7.2-16.7,10-8.7,4.5-17.5,8.6-26.5,12.3-.3.2-.7.3-1.1.4-1.1.3-2.3,1-3.5,2.1.7.3,1.3.5,2,.5.7,0,1.3,0,2,0,.2,0,.5-.1.7-.1,9.9-.9,19.9-1.2,29.8-.9,9.8.3,19.6,1.2,29.3,2.6,9.7,1.4,19.2,3.8,28.7,7,6,2.1,11.6,5,16.8,8.7ZM216.7,138.6c10.9-11.3,10.3-22-1.8-32.1-5.5-4.2-11.6-7.3-18.1-9.5-15.1-5-30.5-8-46.3-8.8-16.1-1-32.2-.7-48.2,1-1.9.2-3.3.6-4.4,1.4-1.1.8-1.9,2.1-2.4,4-9.7,31-19.1,62.1-28.2,93.4,0,.2-.2.5-.2.7-.2.5-.4,1.1-.5,1.7,0,.7,0,1.4.4,2.3,5.9-1.5,11.9-2.9,17.8-4.4,24.4-5.6,48.5-12.2,72.4-19.7,13.5-4.2,26.6-9.6,39.2-16,7.6-3.6,14.4-8.3,20.4-14ZM102.1,74.5c0,.2-.2.5-.2.7-.2.5-.4,1-.5,1.5s-.1,1,0,1.5c.5.2.9.3,1.3.2.4-.1.8-.3,1.2-.5.2,0,.4-.2.6-.2,11.1-4.5,22.1-9.5,32.7-15.1,3.7-2,7.4-4.1,11-6.5,1.9-1.2,3.7-2.6,5.4-4.2,6.8-6.1,5.9-10.9-2.7-14.3-1.4-.6-2.8-1.1-4.2-1.5-9.5-2.4-19.2-3.1-29.1-2.1-2.4.2-3.7,1.4-4.2,3.8-2.8,9.7-5.7,19.3-8.9,28.9-.9,2.6-1.8,5.2-2.6,7.8Z"/>
    <path class="cls-1" d="M300.6,116.1c.7.5,1,1,1,1.6s-.2,1.2-.5,1.9c-.5,1-1.1,2-1.7,2.9-1.5,2.1-3.1,4.2-4.5,6.2-8.3,12-16.8,23.7-25.6,35.2-3.6,4.6-7.6,9-12,12.9-1.8,1.7-3.8,3.1-6,4.2-4.6,1.7-7.9.2-9.8-4.4-.3-.7-.6-1.5-.7-2.3-.2-1.1-.3-2.2-.4-3.3,0-.5,0-.9-.1-1.3,0-8.5,1.1-16.7,3.2-24.8,5.9-24.7,13.1-49,21.7-72.9,8-22.5,16.5-44.8,25.6-66.9.5-1.4,1.1-2.7,2-4,.3-.5.7-.8,1.2-1,.5-.2,1.1-.1,1.7.2,1.1.7,1.5,1.6,1,2.9-.2.5-.4,1-.6,1.5-.2.4-.3.8-.5,1.2-.4.9-.8,1.8-1.1,2.8-7.1,18.1-14,36.4-20.7,54.7s-12.8,36.8-18.2,55.5c-2.3,7.5-4.3,15-6.1,22.6-1.8,7.6-3.1,15.3-3.9,23.1-.2,2.6-.2,5.2.1,7.8.5,4.4,2.4,5.2,5.7,2.6,2.1-1.5,4.1-3.3,5.9-5.1,5-5.2,9.5-10.7,13.7-16.5,5.5-7.6,10.9-15.3,16.4-22.8,2.6-3.7,5.2-7.3,7.8-10.9,0,0,.2-.2.2-.4.6-.8,1.2-1.6,1.8-2.4.5-.6,1-.9,1.6-1.1.6-.2,1.2,0,1.8.4Z"/>
    <path class="cls-1" d="M362.2,120.1c-1.5,1.1-3.1,1.9-4.8,2.4-8.5,3.1-17.2,4.9-26.1,5.4-2.3,0-4,1-5.1,2.8-3.2,4.6-7.1,8.5-11.7,11.6-2.8,2-6,3.2-9.5,3.5-4.8.2-8.1-2-9.8-6.5-1.1-3.3-1.4-6.7-.9-10.1,1-6.3,3-12.3,6.1-17.9,0,0,.2-.2.2-.4.3-.7.7-1.2,1.1-1.8.4-.5.9-.8,1.6-.7,1.3,0,2.2-.1,2.8-.7.6-.5,1-1.2,1.3-2.1.2-.3.3-.7.5-1,1.5-2.4,3.6-4.3,6.5-5.6,2.9-1.3,5.9-1.7,9.1-1.3,5.1,1,8.3,4,9.6,9.2.7,3.6.6,7.1-.5,10.6,0,.4-.2.8-.4,1.2-.5,1.1-.7,2.2-.7,3.5,2.2.3,4.3.2,6.3-.4.3,0,.6,0,.9-.1.5,0,1-.2,1.5-.2,6.8-1,13.2-3,19.4-6,.7-.4,1.4-.7,2.1-.7.7,0,1.3.2,1.8,1,.5.9.5,1.7.2,2.4-.4.7-.9,1.3-1.6,1.8ZM308.5,139.6c5.7-2.8,10.4-7,14-12.7-7.2-2.7-12.4-7.4-15.6-14.2-3.1,3.1-5.2,6.5-6.2,10.1-1.1,3.6-1.5,7.4-1.5,11.3.4,6.1,3.5,7.9,9.3,5.5ZM325.1,121.3c1.4-.7,2.3-1.9,2.7-3.5.4-1.6.7-3.2.7-4.8,0-.3,0-.7.1-1-.2-6.5-3-9.5-8.3-9-1.8.2-3.4.6-4.9,1.3-1.5.7-2.6,2-3.2,3.8-.5,1.6-.4,3.1.3,4.3.7,1.3,1.6,2.5,2.6,3.6,0,0,.2.2.2.2,0,.2.2.3.4.4.4.3.8.7,1.2,1.1,1.3,1.2,2.6,2.2,4,3.1,1.4.8,2.8,1,4.2.5Z"/>
    <path class="cls-1" d="M448.2,115.4c.7-.4,1.4-.6,2.1-.7.7,0,1.3.3,1.8,1.2.4.8.4,1.5,0,2.1-.4.6-.9,1.1-1.5,1.6-.6.4-1.2.8-1.8,1.1,0,0-.2.1-.2.1-18.2,11.3-35.8,23.6-52.6,36.7-3.3,2.5-6.6,5-9.9,7.4-2.1,1.8-3.5,3.9-4.2,6.3-13.3,34.9-30.2,68-50.7,99.4-6.6,10.2-13.7,19.9-21.4,29.3-7.7,9.4-16.1,18-25.3,26-6.8,6-14.2,11-22.2,15-4.2,2.2-8.7,3.4-13.5,3.5-7.4,0-11.9-3.5-13.5-10.7-.8-4.7-.5-9.4.9-13.9,2.4-8.5,5.9-16.6,10.6-24,10.2-16.8,21.9-32.3,35.3-46.5,11.8-12.9,24.2-25,37.1-36.5s26.2-22.5,39.9-33.2c5.9-4.6,11.8-9.3,17.7-13.9,1.5-1,2.6-2.3,3.3-4,2.4-6.8,4.7-13.5,6.7-20.4,2-6.8,3.5-13.8,4.5-21,0-.2.1-.4.1-.6.2-.7.2-1.3.2-1.9,0-.6-.3-1.2-.8-1.9-1.6.8-3.1,1.9-4.3,3.3-.2.3-.5.6-.9.9-1.2,1.1-2.4,2.3-3.5,3.4-4.6,4.6-9.4,9-14.4,13.2-3,2.5-6.3,4.6-9.8,6.2-6.3,2.2-9.4,0-9.2-6.7.2-1.6.6-3.2,1.2-4.8,4.1-10.2,10.8-18.1,20.1-23.8,1.8-1.1,3.7-1.9,5.7-2.6,4.6-1.5,8-.2,10.3,3.9.6.8,1.1,1.3,1.6,1.5.5.2,1.3.2,2.3,0,3.5-.9,5.6.4,6.3,4,.4,2.4.4,4.8,0,7.2-1.7,10.3-4.2,20.4-7.4,30.3,0,.3-.2.7-.4,1-.2.6-.4,1.1-.5,1.7-.1.6,0,1.2.2,1.8,1.5-.6,2.7-1.3,3.7-2.2.4-.3.8-.6,1.1-.9,1.6-1.2,3.3-2.4,5-3.7,13-10.1,26.4-19.6,40.3-28.6,2.8-1.7,5.8-3.4,8.8-5,.4-.2.9-.5,1.3-.7ZM373.8,177.7c0-.2.1-.3.1-.5.2-.3.4-.7.5-1.2,0-.4,0-1-.1-1.6-.2.2-.5.3-.7.4-.4.2-.8.5-1.1.7-12.5,9.7-24.7,19.6-36.7,29.7-12,10.1-23.6,20.7-34.7,31.7-17.1,16.6-32.3,34.7-45.7,54.4-5.1,7.6-9.4,15.6-12.7,24.2-1.8,4.5-2.7,9.1-2.8,13.8,0,8.3,4.2,11.6,12.3,9.8,4.2-1,8.1-2.6,11.7-4.8,8.2-4.7,15.7-10.4,22.5-17,12.7-12,24-25.3,33.8-39.7,21.6-31.3,39.4-64.7,53.6-100ZM382.1,116c.7-.7.9-1.4.8-2.1-.1-.7-.3-1.3-.7-2,0-.2-.1-.3-.1-.4-.4-.8-.9-1.4-1.5-1.9-.6-.4-1.4-.5-2.4-.3-1.2.2-2.4.7-3.7,1.2-9.8,5.4-16.6,13.3-20.4,23.8-.2.3-.3.7-.4,1v.4c-.4,2.2.4,2.9,2.3,2.1.7-.2,1.5-.6,2.2-1.1,7.6-5.2,14.5-11.1,20.8-17.8,1-1,2-2,3.1-2.9Z"/>
  </g>
</svg>