<?xml version="1.0" encoding="UTF-8"?>
<svg id="_レイヤー_1" data-name="レイヤー 1" xmlns="http://www.w3.org/2000/svg" viewBox="0 0 541.8 227">
  <defs>
    <style>
      .cls-1 {
        fill: #fff;
      }
    </style>
  </defs>
  <g id="question">
    <path class="cls-1" d="M187.5,217.4c.8,0,1.5,0,2.1.2s1,.9,1,1.8c0,.9-.2,1.5-.8,2-.6.4-1.3.7-2,.7-2.6.5-5.2.4-7.8-.1-7-1.5-13.8-3.7-20.3-6.7-25.6-11.2-49.5-25.2-71.9-41.9-.2-.2-.3-.3-.5-.4-1.2-1.1-2.1-1.5-2.6-1.5-.5,0-1.3.8-2.3,2.1,0,.2-.2.3-.4.4-8.1,10.2-17.6,18.7-28.6,25.5-7.4,4.8-15.5,7.7-24.2,8.7-11.2.8-19.5-3.7-24.9-13.5-2.7-5.3-4.2-10.9-4.4-16.8-.7-15.1,1.5-29.9,6.3-44.2,4.3-13.5,9.8-26.5,16.4-39.1,1.8-3.2,2.2-6.5,1.3-10.1-3-14.1-2.6-26.6,1.1-37.6,3.7-11,9.5-20.2,17.3-27.6,7.8-7.4,16.2-12.7,25.3-16,7.2-2.8,14.7-3.8,22.5-2.9,12.5,1.8,22.2,8,28.9,18.7,5,8.2,8,17.1,8.8,26.6.2,2.6.4,5.2.5,7.7,0,1.2,0,2.4.1,3.5-.2,9.2-1.2,18.2-3.2,26.9-2,8.8-4.5,17.4-7.6,25.9-6.8,19.1-16,37-27.6,53.6-.2.5-.5.9-.7,1.2-.7.7-1,1.3-1.2,1.7-.1.4,0,.8.4,1.3.4.4,1.1,1.1,2.2,1.9.2,0,.3.2.4.2,17.1,12.7,35.1,23.8,54.1,33.2,8.3,4.4,16.9,8.2,25.9,11.4,5.1,2.1,10.5,3.2,16.1,3.2ZM77,172.2c.4-.5.8-.9,1.1-1.3.9-1,1.5-1.8,1.8-2.3.3-.6.3-1.1,0-1.5-.3-.4-.9-1-1.8-1.7-.6-.4-1.2-.9-2-1.6-15.7-13.7-28.8-29.5-39.3-47.5-3.3-5.9-6.3-12.2-9-18.7-.7.3-1.1.7-1.4,1.1-.3.4-.5.9-.7,1.3,0,.2-.2.3-.2.5-6.3,12.4-11.4,25.2-15.4,38.5-3.6,11.6-5.3,23.4-5.2,35.5,0,6.3,1.4,12.2,4.2,17.9,3.8,7.2,9.9,10.8,18.2,10.7,7.5-.5,14.4-2.6,20.8-6.5,11.1-6.3,20.8-14.5,28.9-24.5ZM87.3,158.6c13.6-19.9,23.7-41.5,30.3-64.6,4.2-13.7,6.1-27.6,5.9-41.9-.2-9.3-2.2-18.1-6.2-26.4-4.2-8.3-10-14.2-17.3-17.6s-15.5-4-24.5-1.6c-22.7,6.3-37.8,20.6-45.3,43-3.4,10.4-3.5,21-.2,31.9.2-.4.5-.9.7-1.3.7-.9,1.3-1.8,1.8-2.7,4.2-7.3,8.9-14.4,14-21.1,2.5-3.4,5.4-6.5,8.5-9.4.7-.6,1.4-1.1,2.1-1.5.8-.4,1.6-.6,2.6-.5,1.3.2,2.1.9,2.4,2.1,0,.6,0,1.1-.2,1.5-.2.4-.6.7-1.1.9-1.7.4-3.1,1.2-4.2,2.3-1.1,1.1-2.1,2.3-3.1,3.6-.3.4-.7.9-1,1.3-6.5,8.3-12.3,17.1-17.5,26.4-1.5,2.4-2.4,4.3-2.9,5.6-.5,1.3-.6,2.7-.2,4.1.3,1.4,1.1,3.4,2.2,6,5.3,12.5,12,23.8,20.1,34.2,8.1,10.3,17.2,19.9,27.4,28.7l.2.2c.2.2.3.3.5.4,1,1.1,1.9,1,2.8-.2.3-.5.7-1,1.1-1.6.4-.5.8-1,1.1-1.6Z"/>
    <path class="cls-1" d="M213.4,113.5c.9-.6,1.8-.4,2.7.4.7.8.9,1.7.4,2.7-.7,1-1.3,1.9-2.1,2.7-6.8,6.8-13.8,13.4-21,19.8-2.6,2.4-5.6,4.3-9,5.6-6.2,1.9-10.1-.3-11.7-6.6-.6-3.9-.3-7.8.7-11.6.3-1.5.7-2.8,1-4,.2-.6.3-1.1.4-1.5-1.2,1.1-2.4,2.2-3.7,3.3-2.8,2.5-5.7,5.1-8.5,7.7l-.5.5c-3,2.9-6.1,5.7-9.4,8.2-2.4,2-5.1,3.5-8.1,4.6-6.9,2.3-10.9-.2-12-7.4-.4-3.5-.2-6.9.6-10.3,1.6-7.3,4-14.4,7.1-21.2,0-.2,0-.3.1-.5.2-.2.3-.4.4-.6.3-.9.8-1.6,1.3-2.2s1.4-.6,2.4-.1c.9.5,1.3,1.1,1.2,1.8,0,.7-.3,1.5-.7,2.2,0,.2-.2.4-.2.6-2.8,6.6-5,13.4-6.6,20.4-.7,3.3-.9,6.5-.5,9.8.3,2.8,1.8,3.7,4.4,2.8,3.4-1.1,6.5-2.9,9.3-5.4,6.3-5.4,12.2-11.2,17.7-17.5,1.6-1.8,3.3-3.6,4.9-5.5,1.4-1.5,2.8-3.1,4.2-4.8,0,0,.2,0,.2-.1.8-1,1.7-1.8,2.7-2.4,1.1-.7,2.1-.7,3-.1.9.6,1.2,1.5,1.2,2.8-.2,1.1-.6,2.2-1.1,3.3,0,.2-.2.5-.2.9-.3.8-.7,1.7-1,2.6-1.9,4.4-3.4,8.9-4.5,13.5-.6,2.3-.9,4.6-.9,6.8,0,5.5,2.5,6.9,7.4,4.2,2.7-1.6,5.2-3.5,7.4-5.6,3.3-3.2,6.7-6.3,10-9.5,2.5-2.4,5-4.9,7.6-7.3,1.1-1.1,2.2-2,3.4-2.8Z"/>
    <path class="cls-1" d="M273.2,117c-.6,1.6-1.5,2.9-2.9,3.8-10.2,8-21.2,14.6-33,19.9-5.3,2.3-10.8,3.3-16.6,3.2-3.2,0-6.1-.7-8.9-2.1-6.9-4.2-9.2-10.2-7-17.9,1.8-4.4,4.9-8,9.4-10.9,4.5-2.8,9.1-4.2,13.9-3.9.7,0,1.5.2,2.3.4,3.3.7,5.3,2.5,6.2,5.5.6,3-.4,5.5-2.8,7.3-5.6,5-12.1,6.8-19.4,5.6-1-.2-2-.5-2.9-.9-.5-.2-1.1-.3-1.7-.5-1.3,5.6.7,9.4,5.9,11.4,2.8.9,5.7,1.1,8.7.7,6.8-.8,13-2.9,18.8-6.3,8.9-4.8,17.3-10.4,25.1-16.7.5-.4,1-.8,1.6-1.2.7-.4,1.5-.4,2.3,0,.9.7,1.2,1.6,1,2.7ZM216.4,117.8c-.2.2-.5.3-.9.5-.7.4-1.4.9-2,1.5-.6.6-.8,1.3-.5,2.1.2.7.8,1.2,1.6,1.4.8.2,1.7.3,2.7.3h1.1c4.3-.2,8.3-1.7,11.8-4.5.4-.3.8-.7,1.1-1.2.3-.5.4-1.1.2-1.7-.2-.6-.6-1-1.2-1.2-.5-.2-1.1-.4-1.6-.4-4.6-.5-8.7.6-12.3,3.3Z"/>
    <path class="cls-1" d="M326.9,113.1c1.1,0,1.7.5,2.1,1.6.3,1.1,0,2-.9,2.6-1.3.7-2.6,1.2-4,1.6h0c-12.4,4.6-24.5,9.6-36.5,15.1-2.9,1.1-4.3,3.1-4,6.2.3,5.3-1.2,10-4.6,14-2.8,3.7-6.6,5.6-11.2,5.9-5.7-.3-8.2-3.3-7.4-8.9.7-2.6,1.9-4.9,3.7-6.8,3.2-3.8,6.9-6.9,11.2-9.3,2.2-1.2,2.8-2.9,1.7-5.1-1.9-4.8-4.1-9.4-6.7-13.9,0-.2-.2-.4-.2-.6-.4-.7-.8-1.3-1.2-2.1-1.5-2.7-2.9-5.5-4.2-8.3-4.2-9.6-4.2-19.2.2-28.8,4.8-10.3,12.5-17.3,23.1-21.2,5.1-2.1,10.4-2.3,15.7-.6,7.8,3.4,10.7,9.3,8.7,17.7-.2.8-.4,1.5-.8,2.1-.4.6-1,.8-2,.6-.7-.2-1.2-.7-1.4-1.2-.2-.6-.3-1.2-.3-2,0-.4.2-.8.2-1.2v-.6c.7-6.4-2.2-10.2-8.5-11.4-2.3-.3-4.5-.2-6.7.4-8.5,2.4-15.1,7-19.8,13.7-4.7,6.7-6.8,13.7-6.2,21.1.4,4.6,1.8,9,4.3,13.2,1,2,2,3.9,3.2,5.7,3,5.1,5.6,10.5,7.7,16.1.3,1.1.8,1.6,1.4,1.5.6,0,1.2-.3,1.9-.7.2,0,.3-.2.5-.2,10.2-4.7,20.5-9.1,31-13.1,2.4-.9,4.9-1.7,7.3-2.6,1-.3,2-.5,2.9-.5ZM272.7,153.2c4.1-3.3,6-8,5.9-14.2-5.4,3-9.5,6.7-12.3,11h-.1c-.4.8-.7,1.4-.9,2.1-.2.7,0,1.3.5,2,.6.7,1.3,1.1,2.1,1,.8,0,1.6-.2,2.3-.5.9-.3,1.7-.8,2.6-1.3Z"/>
    <path class="cls-1" d="M440.9,66.2c.7.6,1,1.3.9,2.2-.2.9-.8,1.4-1.6,1.6-1.1,0-2.3,0-3.4,0-24.8-1.7-49.6-2.4-74.5-2h-12c-1.3,0-2.3,0-2.9.2-.6.1-1.1.5-1.4,1-.3.6-.7,1.5-1.1,2.7-16.8,48.6-32.5,97.5-47.2,146.7-.7,2.2-1.4,4.4-2.2,6.6-.2.7-.6,1.1-1.2,1.5-.5.3-1.2.4-1.9.1s-1.2-.7-1.4-1.3c-.2-.6-.2-1.3,0-2,.4-1.5.9-3.1,1.3-4.6,14.5-48.8,30-97.3,46.6-145.4.3-1,.7-2,1.1-3.2.2-.6.4-1.2.6-2h-9.2c-6.5,0-12.9,0-19.2,0-17,.4-34,.9-51,1.3-1.9,0-3.7,0-5.6.1h-1.2c-.7,0-1.5,0-2.3,0-.8.1-1.4.5-2,1-1.2,1.1-2.4,1.1-3.4-.2-.9-1.5-.7-2.8.5-4,.7-.7,1.4-1.1,2.3-1.3.9-.2,1.8-.3,2.7-.3,2.6,0,5.2-.2,7.8-.2,5.7-.2,11.4-.4,17-.6,4.9,0,9.7-.2,14.5-.4,15.7-.5,31.4-.8,47-.9,1.4,0,2.4,0,3-.2.6-.1,1.1-.5,1.4-1,.3-.6.7-1.5,1.1-2.7.7-2,1.3-4,1.8-6,.2-.8.5-1.6.7-2.4.3-.9.6-1.8.9-2.8.2-.9.6-1.6,1.2-2.3.5-.6,1.3-.8,2.3-.5,1.1.4,1.6,1,1.7,1.9,0,.9,0,1.7-.4,2.6-.7,2-1.3,4-2,6-.4,1.2-.8,2.5-1.1,3.8-.2.6-.4,1.2-.6,2,0,.3-.2.7-.2,1,.7.4,1.3.6,2,.7.7,0,1.3,0,2,0h1c6.1,0,12.2.1,18.2.1,11.9,0,23.7,0,35.5.2,9.9,0,19.8.6,29.7,1.7.2,0,.4.1.6.1,1.3,0,2.5.4,3.7,1.1Z"/>
    <path class="cls-1" d="M356.6,143.8c-7.1,0-11-3.2-11.7-9.6-.3-3.8.1-7.4,1.3-10.9,1.2-3.4,2.7-6.8,4.5-10,.2-.7.7-1.1,1.3-1.3s1.3-.1,2,.2c.7.4,1.1.9,1.1,1.5s-.2,1.2-.5,2c-1.8,3.6-3.2,7.4-4.3,11.4,0,.2,0,.4-.1.6-.2.7-.3,1.5-.4,2.3-.7,7.2,2.4,10,9.5,8.4,4.1-1.2,7.9-3,11.5-5.2,9.2-5.3,18-11.1,26.4-17.5,2.8-2.4,4.6-2.7,5.4-1.1.6,1.1.6,2.1,0,2.9-.5.8-1.2,1.4-1.9,1.9h-.1c-11.2,9.1-23.4,16.6-36.4,22.8-2.6,1.1-5.1,1.7-7.6,1.7ZM356.1,101.8c-1.2,0-1.9-.8-2-2.2,0-1.4.3-2.6,1.2-3.5,3.6-4.9,7.6-9.3,12.2-13.3.7-.5,1.3-.9,2.1-1.3,1-.5,1.9-.4,2.7.4.7.9.7,1.8.1,2.7-.7,1-1.5,1.8-2.3,2.6-4.5,3.8-8.4,8.2-11.7,13.1-.2.4-.5.8-.9,1.1s-.8.5-1.5.6Z"/>
    <path class="cls-1" d="M462.8,118.6c-1.5,1.1-3.1,1.9-4.8,2.4-8.5,3.1-17.2,4.9-26.1,5.4-2.3,0-4,1-5.1,2.8-3.2,4.6-7.1,8.5-11.7,11.6-2.8,2-6,3.2-9.5,3.5-4.8.2-8.1-2-9.8-6.5-1.1-3.3-1.4-6.7-.9-10.1,1-6.3,3-12.3,6.1-17.9,0,0,.2-.2.2-.4.3-.7.7-1.2,1.1-1.8.4-.5.9-.8,1.6-.7,1.3,0,2.2-.1,2.8-.7.6-.5,1-1.2,1.3-2.1.2-.3.3-.7.5-1,1.5-2.4,3.6-4.3,6.5-5.6,2.9-1.3,5.9-1.7,9.1-1.3,5.1,1,8.3,4,9.6,9.2.7,3.6.6,7.1-.5,10.6,0,.4-.2.8-.4,1.2-.5,1.1-.7,2.2-.7,3.5,2.2.3,4.3.2,6.3-.4.3,0,.6,0,.9-.1.5,0,1-.2,1.5-.2,6.8-1,13.2-3,19.4-6,.7-.4,1.4-.7,2.1-.7.7,0,1.3.2,1.8,1,.5.9.5,1.7.2,2.4s-.9,1.3-1.6,1.8ZM409.1,138.1c5.7-2.8,10.4-7,14-12.7-7.2-2.7-12.4-7.4-15.6-14.2-3.1,3.1-5.2,6.5-6.2,10.1-1.1,3.6-1.5,7.4-1.5,11.3.4,6.1,3.5,7.9,9.3,5.5ZM425.7,119.8c1.4-.7,2.3-1.9,2.7-3.5.4-1.6.7-3.2.7-4.8,0-.3,0-.7.1-1-.2-6.5-3-9.5-8.3-9-1.8.2-3.4.6-4.9,1.3-1.5.7-2.6,2-3.2,3.8-.5,1.6-.4,3.1.3,4.3.7,1.3,1.6,2.5,2.6,3.6,0,0,.2.2.2.2,0,.2.2.3.4.4.4.3.8.7,1.2,1.1,1.3,1.2,2.6,2.2,4,3.1,1.4.8,2.8,1,4.2.5Z"/>
    <path class="cls-1" d="M538,114.2c1-.9,2-.9,3.1,0,.5.4.8.9.8,1.4,0,.5-.1,1.1-.4,1.6-.7,1.3-1.5,2.4-2.7,3.4-1.5,1.3-2.9,2.6-4.4,3.9-7.5,6.8-15,13.5-22.5,20.3-2.5,2.4-5.4,4.2-8.5,5.5-4.8,1.6-7.6,0-8.4-4.9-.4-3.3-.2-6.5.6-9.6,1.5-6.3,3.4-12.5,5.6-18.6.7-2.2,1.5-4.4,2.2-6.7,0-.3.2-.7.4-1.1,1.2-3.3,2-6.6,2.4-10.1.4-3.5-.9-4.3-3.9-2.4-2.2,1.1-4.2,2.4-6.1,3.9-15.5,13.3-28.1,28.9-37.6,47-.2.2-.3.5-.4.9,0,0-.1.2-.1.4-.2.7-.6,1.4-1,2-.4.6-1.1.8-2.1.6-1.1-.2-2-.8-2.7-1.8s-1.1-2.1-1-3.2c.3-1.6.7-3.2,1.2-4.8,5.2-18.6,11.3-37,18.2-55.1.5-1.4,1.1-2.7,1.8-4,.3-.7.8-1.3,1.4-1.6.6-.4,1.3-.3,2.1.2.7.4,1,.9,1.1,1.5,0,.6,0,1.2-.5,1.9-.2.3-.3.7-.5,1,0,.2,0,.3-.1.4-4.9,12.6-9.2,25.4-12.9,38.3-.7,2.4-1.5,4.7-2.2,7v.7c0,.2.1.4.1.7,1.2-.9,2.1-1.9,2.6-3.1.2-.3.5-.7.7-1,6.7-10,14.4-19.2,23.2-27.5,3.3-3.2,7-5.9,10.9-8.3,1.8-1.2,3.7-2,5.9-2.3,3.4-.5,5.7.9,6.7,4.2.5,2,.6,3.9.2,5.9-.9,4.6-2.2,9.2-3.8,13.5,0,.3-.2.7-.2,1l-1.5,4.4c-2.1,5.9-3.9,11.8-5.4,17.9,0,.4-.2.9-.2,1.3-.3,1.2-.5,2.4-.6,3.5,0,1.1.2,1.9,1,2.5,1,.7,1.9.7,2.9.1.9-.6,1.8-1.3,2.6-2.1.4-.3.8-.7,1.1-1,6.9-5.8,13.6-11.7,20.1-17.8,2.8-2.6,5.7-5.2,8.5-7.9.3-.2.6-.5.9-.7.4-.5.9-.9,1.3-1.2Z"/>
  </g>
</svg>