<?xml version="1.0" encoding="UTF-8"?>
<svg id="_レイヤー_1" data-name="レイヤー 1" xmlns="http://www.w3.org/2000/svg" viewBox="0 0 444.1 204.3">
  <defs>
    <style>
      .cls-1 {
        fill: #ffe3cc;
      }

      .cls-2 {
        opacity: .5;
      }
    </style>
  </defs>
  <g id="salon" class="cls-2">
    <path class="cls-1" d="M212.6,15.7c5.6,3.5,9.1,7.9,10.5,13.2,1.4,5.3.4,10.9-2.8,16.7-3.3,5.3-7.5,9.8-12.5,13.5-5.9,4.6-12.2,8.4-18.9,11.6-6.7,3.2-13.5,5.9-20.5,8.3-.7.3-1.4.4-2.1.4-.7,0-1.2-.6-1.5-1.5-.2-.9-.1-1.6.3-2.1.4-.5,1.1-.9,1.9-1.2,1.3-.6,2.6-1.1,3.9-1.6.5-.2,1-.3,1.5-.5,9.7-3.6,18.8-8.2,27.3-13.9,4-2.6,7.6-5.6,11-8.9,2.3-2.4,4.2-5,5.7-7.8,4.2-8.7,2.3-15.8-5.6-21.2-3.3-2.1-6.9-3.6-10.7-4.5-11.6-2.7-23.2-3.3-34.9-2-42.5,4.6-81.7,18.3-117.8,41.3-11.8,7.2-22.4,16.1-31.7,26.5-3.7,4-6.6,8.4-8.8,13.3-3.3,7.2-1.5,12.7,5.6,16.2,6.7,3.3,13.6,5.5,20.9,6.6,7.1,1.5,14.2,2.8,21.4,4,9.5,1.6,19,3.5,28.4,5.6,8.8,1.8,17.3,4.4,25.5,7.9,2.5,1.1,5,1.2,7.4.2,18.3-6.4,36.8-12.1,55.4-17.1,3.1-.8,6.2-1.5,9.3-2.2.9-.2,1.8-.3,2.7-.5,1.1-.3,2.2-.5,3.3-.5.3,0,.7-.1,1.1-.1.8-.2,1.6-.1,2.3,0,.7.2,1.2.8,1.3,1.9,0,1.1-.3,1.9-1,2.2-.7.3-1.5.6-2.4.7h-.4c-10.1,2-20,4.6-29.8,7.6-12.9,3.7-26,7.9-39.3,12.6.8.7,1.5,1.3,2.2,1.8,1.4,1.1,2.6,2.1,3.7,3.1,8.6,8.2,9.6,17.3,2.8,27.1-3.9,5.3-8.7,9.7-14.3,13.2-11.2,7.1-23.3,12.1-36.3,15.1-9.2,2.4-18.5,3.6-28,3.4-4.5,0-8.7-1.1-12.8-2.9-6.9-3.9-8.9-9.5-5.9-16.8,1.8-3.7,4.2-7,7.3-9.6,5-4.6,10.5-8.7,16.5-12.2,13.8-8,28.2-14.6,43.2-20,1.4-.6,2.8-1.1,4.4-1.7.7-.3,1.5-.6,2.3-.9-.5-.7-1-1.2-1.6-1.5-.6-.3-1.2-.5-1.8-.7-.3,0-.6-.2-.9-.2-12.7-4-25.6-7-38.7-9.2-.2,0-.5-.1-.7-.1-3.2-.7-6.4-1.2-9.6-1.7-9.3-1.5-18.5-3.5-27.6-5.7-5.1-1.1-10-3.1-14.5-5.7-7.7-4.8-10.1-11.5-7.1-20.1,2.2-5.6,5.3-10.7,9.4-15.3,9.3-10.7,19.9-19.7,31.7-27.2C77.1,30.1,114.8,15.9,155.7,9.9c13.9-2.2,27.8-2.1,41.7.4,5.4.9,10.4,2.7,15.1,5.4ZM108.7,143.9c-13.6,4.6-26.8,10.1-39.7,16.4-9,4.3-17.3,9.6-25.1,15.7-3.6,2.7-6.5,5.9-8.7,9.8-2.7,5.3-1.3,9.1,4,11.5,3.7,1.4,8.1,2.1,13.3,2.1,20.4-.9,39.9-7.1,58.5-18.6,2.8-1.8,5.3-3.8,7.6-6.1,1.8-1.6,3.4-3.5,4.8-5.5,4.9-7.2,4.2-13.7-2.2-19.7-1.6-1.5-3.4-2.9-5.4-4.2-.4-.2-.8-.5-1.2-.9-1.9-1.3-3.8-1.5-5.9-.6Z"/>
    <path class="cls-1" d="M256.1,115.9c.7.6,1.1,1.2,1.1,1.8s-.2,1.3-.6,2.1c-.5.8-1.1,1.6-1.7,2.3-5.5,6.4-11.5,12.4-17.8,17.9-2.1,1.9-4.5,3.3-7.1,4.4-5.5,2-9.1.1-10.6-5.5-.6-2.4-.7-4.9-.4-7.3.2-1.6.4-3.3.6-5,0-.7.2-1.5.2-2.2h-.1c-.2,0-.4-.1-.6-.1-1.1,1.1-2.1,2.2-3.1,3.3-2.2,2.5-4.5,5-6.8,7.3-3.9,4.2-8.4,7.7-13.4,10.5-4.6,2.4-8.3,2.7-11,1-2.7-1.7-3.9-5.1-3.5-10.3,1.2-13.1,7.2-23.6,17.9-31.5,2.4-1.8,5.2-2.8,8.2-3.2,6.5-.8,10.9,1.9,13.2,8.1.2.4.3.8.5,1.2.2.2.3.5.4.7.5,0,.9-.2,1.1-.5s.5-.5.7-.9l.7-.7c.5-.4,1-.7,1.5-.8s1,0,1.6.2c1.1.7,1.6,1.7,1.5,2.9-.2,1.6-.6,3.2-1,4.8-.2.7-.4,1.5-.6,2.2-1.5,4.7-2.5,9.5-2.8,14.4v1.2c-.2,1.1-.2,2,0,2.9.1.9.6,1.6,1.5,2.2,1.1.6,2.2.6,3.2.2,1-.4,1.9-1,2.7-1.8.2-.2.4-.3.6-.5,6.8-5.5,13.1-11.7,18.8-18.4.2-.3.5-.7.7-1,.3-.5.7-.9,1.1-1.3s1-.9,1.5-1.1c.5-.2,1.2-.1,1.9.4ZM215.4,120.4c1.1-1.4,1.5-2.8,1.3-4.4,0-4.5-1.2-7.4-3.7-8.9s-5.6-1.1-9.5,1c-1.5.9-3,1.9-4.4,3.1-6.6,6.4-10.8,14.2-12.6,23.2-.3,1.4-.4,2.8-.2,4.3.2,3.3,1.9,4.4,5,3.3,2.3-.9,4.4-2.1,6.3-3.5,6.7-5.3,12.6-11.3,17.7-17.9Z"/>
    <path class="cls-1" d="M303.4,116.1c.7.5,1,1,1,1.6s-.2,1.2-.5,1.9c-.5,1-1.1,2-1.7,2.9-1.5,2.1-3.1,4.2-4.5,6.2-8.3,12-16.8,23.7-25.6,35.2-3.6,4.6-7.6,9-12,12.9-1.8,1.7-3.8,3.1-6,4.2-4.6,1.7-7.9.2-9.8-4.4-.3-.7-.6-1.5-.7-2.3-.2-1.1-.3-2.2-.4-3.3,0-.5,0-.9-.1-1.3,0-8.5,1.1-16.7,3.2-24.8,5.9-24.7,13.1-49,21.7-72.9,8-22.5,16.5-44.8,25.6-66.9.5-1.4,1.1-2.7,2-4,.3-.5.7-.8,1.2-1,.5-.2,1.1-.1,1.7.2,1.1.7,1.5,1.6,1,2.9-.2.5-.4,1-.6,1.5-.2.4-.3.8-.5,1.2-.4.9-.8,1.8-1.1,2.8-7.1,18.1-14,36.4-20.7,54.7-6.7,18.3-12.8,36.8-18.2,55.5-2.3,7.5-4.3,15-6.1,22.6-1.8,7.6-3.1,15.3-3.9,23.1-.2,2.6-.2,5.2.1,7.8.5,4.4,2.4,5.2,5.7,2.6,2.1-1.5,4.1-3.3,5.9-5.1,5-5.2,9.5-10.7,13.7-16.5,5.5-7.6,10.9-15.3,16.4-22.8,2.6-3.7,5.2-7.3,7.8-10.9,0,0,.2-.2.2-.4.6-.8,1.2-1.6,1.8-2.4.5-.6,1-.9,1.6-1.1.6-.2,1.2,0,1.8.4Z"/>
    <path class="cls-1" d="M365,120.1c-1.5,1.1-3.1,1.9-4.8,2.4-8.5,3.1-17.2,4.9-26.1,5.4-2.3,0-4,1-5.1,2.8-3.2,4.6-7.1,8.5-11.7,11.6-2.8,2-6,3.2-9.5,3.5-4.8.2-8.1-2-9.8-6.5-1.1-3.3-1.4-6.7-.9-10.1,1-6.3,3-12.3,6.1-17.9,0,0,.2-.2.2-.4.3-.7.7-1.2,1.1-1.8.4-.5.9-.8,1.6-.7,1.3,0,2.2-.1,2.8-.7.6-.5,1-1.2,1.3-2.1.2-.3.3-.7.5-1,1.5-2.4,3.6-4.3,6.5-5.6,2.9-1.3,5.9-1.7,9.1-1.3,5.1,1,8.3,4,9.6,9.2.7,3.6.6,7.1-.5,10.6,0,.4-.2.8-.4,1.2-.5,1.1-.7,2.2-.7,3.5,2.2.3,4.3.2,6.3-.4.3,0,.6,0,.9-.1.5,0,1-.2,1.5-.2,6.8-1,13.2-3,19.4-6,.7-.4,1.4-.7,2.1-.7.7,0,1.3.2,1.8,1,.5.9.5,1.7.2,2.4-.4.7-.9,1.3-1.6,1.8ZM311.3,139.6c5.7-2.8,10.4-7,14-12.7-7.2-2.7-12.4-7.4-15.6-14.2-3.1,3.1-5.2,6.5-6.2,10.1-1.1,3.6-1.5,7.4-1.5,11.3.4,6.1,3.5,7.9,9.3,5.5ZM327.9,121.3c1.4-.7,2.3-1.9,2.7-3.5.4-1.6.7-3.2.7-4.8,0-.3,0-.7.1-1-.2-6.5-3-9.5-8.3-9-1.8.2-3.4.6-4.9,1.3-1.5.7-2.6,2-3.2,3.8-.5,1.6-.4,3.1.3,4.3.7,1.3,1.6,2.5,2.6,3.6,0,0,.2.2.2.2,0,.2.2.3.4.4.4.3.8.7,1.2,1.1,1.3,1.2,2.6,2.2,4,3.1,1.4.8,2.8,1,4.2.5Z"/>
    <path class="cls-1" d="M440.2,115.7c1-.9,2-.9,3.1,0,.5.4.8.9.8,1.4,0,.5-.1,1.1-.4,1.6-.7,1.3-1.5,2.4-2.7,3.4-1.5,1.3-2.9,2.6-4.4,3.9-7.5,6.8-15,13.5-22.5,20.3-2.5,2.4-5.4,4.2-8.5,5.5-4.8,1.6-7.6,0-8.4-4.9-.4-3.3-.2-6.5.6-9.6,1.5-6.3,3.4-12.5,5.6-18.6.7-2.2,1.5-4.4,2.2-6.7,0-.3.2-.7.4-1.1,1.2-3.3,2-6.6,2.4-10.1.4-3.5-.9-4.3-3.9-2.4-2.2,1.1-4.2,2.4-6.1,3.9-15.5,13.3-28.1,28.9-37.6,47-.2.2-.3.5-.4.9,0,0-.1.2-.1.4-.2.7-.6,1.4-1,2-.4.6-1.1.8-2.1.6-1.1-.2-2-.8-2.7-1.8-.7-1-1.1-2.1-1-3.2.3-1.6.7-3.2,1.2-4.8,5.2-18.6,11.3-37,18.2-55.1.5-1.4,1.1-2.7,1.8-4,.3-.7.8-1.3,1.4-1.6s1.3-.3,2.1.2c.7.4,1,.9,1.1,1.5,0,.6,0,1.2-.5,1.9-.2.3-.3.7-.5,1,0,.2,0,.3-.1.4-4.9,12.6-9.2,25.4-12.9,38.3-.7,2.4-1.5,4.7-2.2,7v.7c0,.2.1.4.1.7,1.2-.9,2.1-1.9,2.6-3.1.2-.3.5-.7.7-1,6.7-10,14.4-19.2,23.2-27.5,3.3-3.2,7-5.9,10.9-8.3,1.8-1.2,3.7-2,5.9-2.3,3.4-.5,5.7.9,6.7,4.2.5,2,.6,3.9.2,5.9-.9,4.6-2.2,9.2-3.8,13.5,0,.3-.2.7-.2,1l-1.5,4.4c-2.1,5.9-3.9,11.8-5.4,17.9,0,.4-.2.9-.2,1.3-.3,1.2-.5,2.4-.6,3.5,0,1.1.2,1.9,1,2.5,1,.7,1.9.7,2.9.1.9-.6,1.8-1.3,2.6-2.1.4-.3.8-.7,1.1-1,6.9-5.8,13.6-11.7,20.1-17.8,2.8-2.6,5.7-5.2,8.5-7.9.3-.2.6-.5.9-.7.4-.5.9-.9,1.3-1.2Z"/>
  </g>
</svg>