<?xml version="1.0" encoding="UTF-8"?>
<svg id="_レイヤー_1" data-name="レイヤー 1" xmlns="http://www.w3.org/2000/svg" viewBox="0 0 634.2 296.6">
  <defs>
    <style>
      .cls-1 {
        fill: #ffe3cc;
      }

      .cls-2 {
        opacity: .5;
      }
    </style>
  </defs>
  <g id="therapist" class="cls-2">
    <path class="cls-1" d="M251.2,94.1c.9,0,1.7.2,2.4.5.7.4,1,1.1.9,2.1,0,.9-.4,1.5-1.1,1.7-.7.2-1.4.4-2.2.4h-1.5c-3.7,0-7.5,0-11.2-.2-34.9-1.6-69.8-2.4-104.7-2.4-3.9,0-7.9-.1-11.8-.1s-2.5.2-3.4.7-1.6,1.4-2.1,2.7c-20.1,47.4-38.3,95.4-54.7,144.2-5.3,15-9.7,30.3-13.2,45.9,0,.2-.1.4-.1.6-.2.9-.4,1.7-.9,2.4-.4.7-1.2,1.1-2.3,1-1.1-.2-1.8-.8-1.9-1.6-.1-.9,0-1.7.2-2.6,0-.2,0-.4.1-.6,1.7-9.6,4.1-19,7.2-28.3,16.7-52.4,35.9-103.9,57.6-154.4,1-2.3,1.9-4.6,2.8-6.8.2-.4.3-.9.5-1.3,0,0,0-.3,0-.6,0-.2-.1-.4-.1-.6-1.5-.4-2.9-.6-4.3-.5h-1.2c-31.7,0-63.4.7-95.1,2-1.9,0-3.7.3-5.5.6-.7,0-1.5.2-2.3.2-.7,0-1.4,0-2-.1-.6-.2-1-.6-1.2-1.3-.2-.9-.1-1.6.4-2.1s1.2-.8,2-1c3.7-.6,7.4-1,11.1-1.2,32.1-1.5,64.1-2.2,96.1-2.1h.6c.3,0,.6,0,.9,0,2.4.4,4-.6,4.8-3.1.3-1.2.8-2.4,1.5-3.5.2-.3.3-.7.5-1,.4-.9.9-1.7,1.3-2.6.6-.7,1.2-1.3,1.9-1.6.7-.3,1.4-.2,2.3.4,1.5,1.3,1.6,2.7.1,4.3-1.1,1.1-1.8,2.3-2.3,3.7,0,.2,0,.3-.1.4-.2.4-.3.8-.4,1.2-.1.4-.1.8,0,1.2.4.4.9.6,1.3.7.5,0,1,0,1.5,0h.9c27.3,0,54.6.3,81.9,1.1h1.1c9.8.2,19.7.7,29.5,1.2,4.5.2,8.9.4,13.3.6h.2c.2,0,.5,0,.7.1Z"/>
    <path class="cls-1" d="M171.7,184.7l.4-.4c.6-.7,1.2-1.1,1.9-1.5.7-.3,1.4-.1,2.3.6.7.9.9,1.8.6,2.6-.3.8-.8,1.5-1.5,2.2-6,7.1-12.5,13.8-19.3,20-1.9,1.9-4.1,3.2-6.6,4-4.2,1.1-7-.2-8.7-4-1.1-3-1.5-6.1-1.2-9.2v-5.4c0-2.9.1-5.9.1-8.8v-.9c0-1.1,0-2.2-.2-3.3-.2-1.1-.8-1.9-1.9-2.6-1.1-.6-2.2-.6-3.2-.2-1,.4-2,1-2.9,1.8-.2.2-.5.4-.9.6-3.3,2.4-6.3,5.2-8.9,8.4-7.7,8.5-13.9,18-18.8,28.3,0,.2-.2.4-.2.6-.2.3-.3.7-.5,1-.2.3-.5.6-.8.7-.2.2-.5.3-.7.4-.5.3-1,.5-1.4.7-.4.1-1,0-1.5-.2-.7-.3-1.1-.8-1.2-1.4-.2-.6-.2-1.2-.1-1.9.2-1.5.6-2.9,1-4.4,7.3-27.8,15.9-55.3,25.6-82.4,14-40.9,28.8-81.5,44.6-121.8.9-2.1,1.8-4.2,2.7-6.2.3-.7.8-1.3,1.3-1.8.5-.4,1.2-.5,2.1-.2.8.4,1.2,1,1.3,1.6,0,.7,0,1.4-.3,2.1-.6,1.9-1.3,3.7-2.1,5.6,0,.2-.2.5-.2.9-16.8,43.4-32.7,87.1-47.7,131.1-6.1,17.8-11.9,35.8-17.5,53.8-.2,1-.5,2-.9,3.2-.2.7-.5,1.4-.7,2.2.9-.6,1.6-1.1,2-1.7.4-.6.8-1.1,1.2-1.7.2-.3.4-.6.6-.9,4.2-6.4,9.2-12.2,14.8-17.5,2.5-2.4,5.4-4.3,8.5-5.6,6.2-2,10.1,0,11.7,6.3.7,3.5.9,7,.6,10.6,0,.4,0,.9-.1,1.3-.4,4.1-.3,8.2.2,12.3.4,3.5,2,4.3,4.9,2.3,2.3-1.4,4.3-3.1,6-5,3.6-3.7,7.2-7.5,10.7-11.4,1.1-1.1,2.1-2.1,3.1-3.2.2-.3.5-.7.9-1,.3-.4.7-.8,1.1-1.2Z"/>
    <path class="cls-1" d="M234.4,186.6c-.6,1.6-1.5,2.9-2.9,3.8-10.2,8-21.2,14.6-33,19.9-5.3,2.3-10.8,3.3-16.6,3.2-3.2,0-6.1-.7-8.9-2.1-6.9-4.2-9.2-10.2-7-17.9,1.8-4.4,4.9-8,9.4-10.9,4.5-2.8,9.1-4.2,13.9-3.9.7,0,1.5.2,2.3.4,3.3.7,5.3,2.5,6.2,5.5.6,3-.4,5.5-2.8,7.3-5.6,5-12.1,6.8-19.4,5.6-1-.2-2-.5-2.9-.9-.5-.2-1.1-.3-1.7-.5-1.3,5.6.7,9.4,5.9,11.4,2.8.9,5.7,1.1,8.7.7,6.8-.8,13-2.9,18.8-6.3,8.9-4.8,17.3-10.4,25.1-16.7.5-.4,1-.8,1.6-1.2.7-.4,1.5-.4,2.3,0,.9.7,1.2,1.6,1,2.7ZM177.6,187.3c-.2.2-.5.3-.9.5-.7.4-1.4.9-2,1.5-.6.6-.8,1.3-.5,2.1.2.7.8,1.2,1.6,1.4.8.2,1.7.3,2.7.3h1.1c4.3-.2,8.3-1.7,11.8-4.5.4-.3.8-.7,1.1-1.2.3-.5.4-1.1.2-1.7-.2-.6-.6-1-1.2-1.2-.5-.2-1.1-.4-1.6-.4-4.6-.5-8.7.6-12.3,3.3Z"/>
    <path class="cls-1" d="M285.5,183.3c.7.5,1,1,1,1.6,0,.6-.1,1.2-.4,1.9-.5.8-1.1,1.6-1.7,2.3-9,10.2-18.4,19.8-28.3,28.9-2.6,2.3-5.4,4.3-8.3,6.1,0,0-.1,0-.1.1-1.4.8-2.8,1.5-4.2,2.1-1.5.6-3.1.9-4.6.9s-2.9-.5-4.2-1.6c-1.3-1.2-2-2.6-2.1-4.1s0-3,.5-4.6c.8-2.7,2-5.2,3.4-7.6,1-1.5,2-3.1,2.9-4.6,1.4-2.3,2.8-4.6,4.3-7,1-1.6,1.8-3.4,2.6-5.2.8-2.2,0-3.5-2.3-3.8-2-.2-4-.2-6,.1-.4,0-.9.1-1.3.1-.7,0-1.3.2-2,.2-1.6.2-3.3.4-4.9.4-3.7,0-5.7-1.8-6-5.5,0-2,.3-3.9,1.2-5.6,3.1-6.1,7.9-10.3,14.4-12.6,1.1-.5,2.3-.7,3.5-.6,1.2,0,2.3.7,3.2,1.7.9,1.1,1.3,2.2,1.2,3.4-.1,1.2-.4,2.3-.9,3.5-.9,1.9-2,3.6-3.3,5.1,0,0,0,.2-.1.2-.2.3-.5.6-.9.9-.4.4-.8.8-1,1.2-.3.4-.5.9-.5,1.5,1,.5,2,.7,3.2.7s1.3,0,2.1.2c5.1,1.5,7,4.9,5.6,10-.9,2.5-2.1,4.9-3.5,7.1-.9,1.5-1.8,3-2.8,4.5-1.2,1.9-2.4,3.8-3.5,5.7-1.1,1.9-2.1,3.8-2.8,5.7-.2.2-.3.5-.4.7-.3.7-.5,1.3-.7,2-.1.7,0,1.3.5,1.8.7.7,1.5.9,2.2.7s1.5-.5,2.2-.9c.2,0,.4-.2.6-.2,4.4-2.5,8.4-5.5,12.1-9,8.6-8.1,16.9-16.7,24.8-25.6l.4-.4c.7-.7,1.3-1.4,2-2.1,1-1,2-1.1,3.1-.5ZM229.5,183.7c5.3-2,9.4-6.1,12.5-12.6-7.4,2-11.6,6.2-12.5,12.6Z"/>
    <path class="cls-1" d="M350.1,184c.7.6,1.1,1.2,1.1,1.8s-.2,1.3-.6,2.1c-.5.8-1.1,1.6-1.7,2.3-5.5,6.4-11.5,12.4-17.8,17.9-2.1,1.9-4.5,3.3-7.1,4.4-5.5,2-9.1.1-10.6-5.5-.6-2.4-.7-4.9-.4-7.3.2-1.6.4-3.3.6-5,0-.7.2-1.5.2-2.2h-.1c-.2,0-.4-.1-.6-.1-1.1,1.1-2.1,2.2-3.1,3.3-2.2,2.5-4.5,5-6.8,7.3-3.9,4.2-8.4,7.7-13.4,10.5-4.6,2.4-8.3,2.7-11,1-2.7-1.7-3.9-5.1-3.5-10.3,1.2-13.1,7.2-23.6,17.9-31.5,2.4-1.8,5.2-2.8,8.2-3.2,6.5-.8,10.9,1.9,13.2,8.1.2.4.3.8.5,1.2.2.2.3.5.4.7.5,0,.9-.2,1.1-.5s.5-.5.7-.9l.7-.7c.5-.4,1-.7,1.5-.8.5-.1,1,0,1.6.2,1.1.7,1.6,1.7,1.5,2.9-.2,1.6-.6,3.2-1,4.8-.2.7-.4,1.5-.6,2.2-1.5,4.7-2.5,9.5-2.8,14.4v1.2c-.2,1.1-.2,2,0,2.9.1.9.6,1.6,1.5,2.2,1.1.6,2.2.6,3.2.2,1-.4,1.9-1,2.7-1.8.2-.2.4-.3.6-.5,6.8-5.5,13.1-11.7,18.8-18.4.2-.3.5-.7.7-1,.3-.5.7-.9,1.1-1.3s1-.9,1.5-1.1c.5-.2,1.2-.1,1.9.4ZM309.3,188.6c1.1-1.4,1.5-2.8,1.3-4.4,0-4.5-1.2-7.4-3.7-8.9s-5.6-1.1-9.5,1c-1.5.9-3,1.9-4.4,3.1-6.6,6.4-10.8,14.2-12.6,23.2-.3,1.4-.4,2.8-.2,4.3.2,3.3,1.9,4.4,5,3.3,2.3-.9,4.4-2.1,6.3-3.5,6.7-5.3,12.6-11.3,17.7-17.9Z"/>
    <path class="cls-1" d="M315.1,279.8c1.7-5.1.5-1.7,2.2-6.8,15.6-48.1,18.3-55.3,35.4-102.8,3-8.1,6.1-16.3,9.2-24.4.6-1.5,1.2-3.1,1.8-4.8.6-1.5,1.3-3,2.1-4.4.3-.6.8-1,1.3-1.3.5-.3,1.2-.2,1.9.2,1.1.7,1.4,1.7.9,2.9,0,.2-.2.5-.4.9-.2.4-.3.9-.5,1.3-5,13.8-10.1,27.5-15,41.3-.2.4-.2.8-.2,1.2,0,.2-.1.4-.1.6,1.7-1.2,3.3-2.5,4.9-3.8,1.9-1.6,3.8-3.1,5.7-4.4,2.7-2,5.6-3.3,8.8-4.2,6.8-1.1,10.5,1.8,11.1,8.7,0,3.5-.8,6.8-2.1,10-.3.9-.6,1.8-.9,2.8.7.3,1.2.4,1.8.3.5-.1,1-.3,1.4-.7.3-.2.7-.3,1-.4,1.1-.5,2.3-.9,3.5-1.3,7.3-2.8,14.8-5.3,22.3-7.3.2,0,.5,0,.7-.1,1.1-.4,2.3-.5,3.5-.4.9.2,1.5.8,1.8,1.6.2,1.1,0,2-1,2.6-1.1.6-2.4,1-3.7,1.3-11.3,3.1-22.3,7-33.1,11.6-2.2.9-3.9,2.3-5,4.3-4.2,6.7-9.5,12.4-15.7,17.2-2.2,1.8-4.7,3-7.4,3.7-2,.3-3.4,0-4.5-1.2-1-1.1-1.2-2.6-.7-4.6,1.2-3.1,3.1-5.7,5.6-7.9,5-5,10.6-9,17-12.1,3.1-1.5,5.3-3.7,6.6-6.8h0c1.5-3.3,2.6-6.6,3.3-10.1.8-5.5-1.4-7.4-6.6-5.5-2.3.9-4.4,2.1-6.3,3.7-10.2,7.5-17.4,17.2-21.7,29.2-2,5.4-6.9,17-16,46-2.4,7.5-5,14.6-7.4,22-1.7,4.9-2,7.7-3.1,11.3,0,.2-.1.5-.1.7-.3,1.4-.9,2.6-1.7,3.8-.7.8-1.5,1.1-2.6.7-.5-.2-.8-.4-1-.8-.2-.4-.2-.8-.2-1.2,0-1.6.2-3.2.7-4.6M353.4,218.3c4.5-2.1,8.1-5.3,10.7-9.6-4.4,2.3-8,5.5-10.7,9.6Z"/>
    <path class="cls-1" d="M419.7,213.3c-7.1,0-11-3.2-11.7-9.6-.3-3.8.1-7.4,1.3-10.9,1.2-3.4,2.7-6.8,4.5-10,.2-.7.7-1.1,1.3-1.3s1.3-.1,2,.2c.7.4,1.1.9,1.1,1.5s-.2,1.2-.5,2c-1.8,3.6-3.2,7.4-4.3,11.4,0,.2,0,.4-.1.6-.2.7-.3,1.5-.4,2.3-.7,7.2,2.4,10,9.5,8.4,4.1-1.2,7.9-3,11.5-5.2,9.2-5.3,18-11.1,26.4-17.5,2.8-2.4,4.6-2.7,5.4-1.1.6,1.1.6,2.1,0,2.9-.5.8-1.2,1.4-1.9,1.9h-.1c-11.2,9.1-23.4,16.6-36.4,22.8-2.6,1.1-5.1,1.7-7.6,1.7ZM419.2,171.3c-1.2,0-1.9-.8-2-2.2,0-1.4.3-2.6,1.2-3.5,3.6-4.9,7.6-9.3,12.2-13.3.7-.5,1.3-.9,2.1-1.3,1-.5,1.9-.4,2.7.4.7.9.7,1.8.1,2.7-.7,1-1.5,1.8-2.3,2.6-4.5,3.8-8.4,8.2-11.7,13.1-.2.4-.5.8-.9,1.1s-.8.5-1.5.6Z"/>
    <path class="cls-1" d="M519.3,182.7c1.1,0,1.7.5,2.1,1.6.3,1.1,0,2-.9,2.6-1.3.7-2.6,1.2-4,1.6h0c-12.4,4.6-24.5,9.6-36.5,15.1-2.9,1.1-4.3,3.1-4,6.2.3,5.3-1.2,10-4.6,14-2.8,3.7-6.6,5.6-11.2,5.9-5.7-.3-8.2-3.3-7.4-8.9.7-2.6,1.9-4.9,3.7-6.8,3.2-3.8,6.9-6.9,11.2-9.3,2.2-1.2,2.8-2.9,1.7-5.1-1.9-4.8-4.1-9.4-6.7-13.9,0-.2-.2-.4-.2-.6-.4-.7-.8-1.3-1.2-2.1-1.5-2.7-2.9-5.5-4.2-8.3-4.2-9.6-4.2-19.2.2-28.8,4.8-10.3,12.5-17.3,23.1-21.2,5.1-2.1,10.4-2.3,15.7-.6,7.8,3.4,10.7,9.3,8.7,17.7-.2.8-.4,1.5-.8,2.1-.4.6-1,.8-2,.6-.7-.2-1.2-.7-1.4-1.2-.2-.6-.3-1.2-.3-2,0-.4.2-.8.2-1.2v-.6c.7-6.4-2.2-10.2-8.5-11.4-2.3-.3-4.5-.2-6.7.4-8.5,2.4-15.1,7-19.8,13.7-4.7,6.7-6.8,13.7-6.2,21.1.4,4.6,1.8,9,4.3,13.2,1,2,2,3.9,3.2,5.7,3,5.1,5.6,10.5,7.7,16.1.3,1.1.8,1.6,1.4,1.5.6,0,1.2-.3,1.9-.7.2,0,.3-.2.5-.2,10.2-4.7,20.5-9.1,31-13.1,2.4-.9,4.9-1.7,7.3-2.6,1-.3,2-.5,2.9-.5ZM465.1,222.7c4.1-3.3,6-8,5.9-14.2-5.4,3-9.5,6.7-12.3,11h-.1c-.4.8-.7,1.4-.9,2.1-.2.7,0,1.3.5,2,.6.7,1.3,1.1,2.1,1,.8,0,1.6-.2,2.3-.5.9-.3,1.7-.8,2.6-1.3Z"/>
    <path class="cls-1" d="M633.3,135.8c.7.6,1,1.3.9,2.2-.2.9-.8,1.4-1.6,1.6-1.1,0-2.3,0-3.4,0-24.8-1.7-49.6-2.4-74.5-2h-12c-1.3,0-2.3,0-2.9.2-.6.1-1.1.5-1.4,1-.3.6-.7,1.5-1.1,2.7-16.8,48.6-32.5,97.5-47.2,146.7-.7,2.2-1.4,4.4-2.2,6.6-.2.7-.6,1.1-1.2,1.5-.5.3-1.2.4-1.9.1s-1.2-.7-1.4-1.3c-.2-.6-.2-1.3,0-2,.4-1.5.9-3.1,1.3-4.6,14.5-48.8,30-97.3,46.6-145.4.3-1,.7-2,1.1-3.2.2-.6.4-1.2.6-2h-9.2c-6.5,0-12.9,0-19.2,0-17,.4-34,.9-51,1.3-1.9,0-3.7,0-5.6.1h-1.2c-.7,0-1.5,0-2.3,0-.8.1-1.4.5-2,1-1.2,1.1-2.4,1.1-3.4-.2-.9-1.5-.7-2.8.5-4,.7-.7,1.4-1.1,2.3-1.3.9-.2,1.8-.3,2.7-.3,2.6,0,5.2-.2,7.8-.2,5.7-.2,11.4-.4,17-.6,4.9,0,9.7-.2,14.5-.4,15.7-.5,31.4-.8,47-.9,1.4,0,2.4,0,3-.2.6-.1,1.1-.5,1.4-1,.3-.6.7-1.5,1.1-2.7.7-2,1.3-4,1.8-6,.2-.8.5-1.6.7-2.4.3-.9.6-1.8.9-2.8.2-.9.6-1.6,1.2-2.3.5-.6,1.3-.8,2.3-.5,1.1.4,1.6,1,1.7,1.9,0,.9,0,1.7-.4,2.6-.7,2-1.3,4-2,6-.4,1.2-.8,2.5-1.1,3.8-.2.6-.4,1.2-.6,2,0,.3-.2.7-.2,1,.7.4,1.3.6,2,.7.7,0,1.3,0,2,0h1c6.1,0,12.2.1,18.2.1,11.9,0,23.7,0,35.5.2,9.9,0,19.8.6,29.7,1.7.2,0,.4.1.6.1,1.3,0,2.5.4,3.7,1.1Z"/>
  </g>
</svg>